<svg preserveAspectRatio="none" width="100%" height="100%" overflow="visible" style="display: block;" viewBox="0 0 64 64" fill="none" xmlns="http://www.w3.org/2000/svg">
<g id="icon">
<g id="&#232;&#131;&#140;&#230;&#153;&#175;">
<mask id="mask0_0_4" style="mask-type:alpha" maskUnits="userSpaceOnUse" x="0" y="0" width="64" height="64">
<rect id="&#231;&#159;&#169;&#229;&#189;&#162;" width="64" height="64" fill="var(--fill-0, black)"/>
</mask>
<g mask="url(#mask0_0_4)">
<g id="&#232;&#129;&#148;&#233;&#155;&#134; 7" filter="url(#filter0_d_0_4)">
<circle cx="32.4653" cy="32.4653" r="22" fill="var(--fill-0, white)" fill-opacity="0.65"/>
</g>
<circle id="&#229;&#156;&#134;&#229;&#189;&#162; 333" cx="32.4654" cy="32.4654" r="18" fill="url(#paint0_linear_0_4)"/>
</g>
</g>
<mask id="mask1_0_4" style="mask-type:alpha" maskUnits="userSpaceOnUse" x="18" y="18" width="29" height="29">
<circle id="&#229;&#156;&#134;&#229;&#189;&#162; 334" cx="32.4653" cy="32.4653" r="14" fill="url(#paint1_linear_0_4)"/>
</mask>
<g mask="url(#mask1_0_4)">
<path id="Union" d="M32 21C32.5523 21 33 21.4477 33 22V28C33 30.0279 31.4906 31.7017 29.5342 31.9629L29.9463 43.501C29.9755 44.3201 29.3196 45 28.5 45C27.6804 45 27.0245 44.3201 27.0537 43.501L27.4648 31.9629C25.5088 31.7013 24 30.0276 24 28V22C24 21.4477 24.4477 21 25 21C25.5523 21 26 21.4477 26 22V26.5C26 26.7761 26.2239 27 26.5 27H27.5V22C27.5 21.4477 27.9477 21 28.5 21C29.0523 21 29.5 21.4477 29.5 22V27H30.5C30.7761 27 31 26.7761 31 26.5V22C31 21.4477 31.4477 21 32 21ZM37.5 21C38.3202 21 38.9774 21.6793 38.9502 22.499L38.5273 35.1602C39.9359 35.618 41 37.0448 41 39.2861C40.9998 42.0474 39.3845 45 37.5 45C35.6155 45 34.0002 42.0474 34 39.2861C34 37.0453 35.0636 35.6183 36.4717 35.1602L36.0498 22.499C36.0226 21.6793 36.6798 21 37.5 21Z" fill="var(--fill-0, white)"/>
</g>
</g>
<defs>
<filter id="filter0_d_0_4" x="3.96533" y="6.96533" width="58" height="58" filterUnits="userSpaceOnUse" color-interpolation-filters="sRGB">
<feFlood flood-opacity="0" result="BackgroundImageFix"/>
<feColorMatrix in="SourceAlpha" type="matrix" values="0 0 0 0 0 0 0 0 0 0 0 0 0 0 0 0 0 0 127 0" result="hardAlpha"/>
<feOffset dx="0.5" dy="3.5"/>
<feGaussianBlur stdDeviation="3.5"/>
<feColorMatrix type="matrix" values="0 0 0 0 0 0 0 0 0 0 0 0 0 0 0 0 0 0 0.15 0"/>
<feBlend mode="normal" in2="BackgroundImageFix" result="effect1_dropShadow_0_4"/>
<feBlend mode="normal" in="SourceGraphic" in2="effect1_dropShadow_0_4" result="shape"/>
</filter>
<linearGradient id="paint0_linear_0_4" x1="31.979" y1="50.7899" x2="27.5" y2="15.5" gradientUnits="userSpaceOnUse">
<stop stop-color="#FF6100"/>
<stop offset="1" stop-color="#FFA429"/>
</linearGradient>
<linearGradient id="paint1_linear_0_4" x1="32.0871" y1="46.7177" x2="28.6034" y2="19.2701" gradientUnits="userSpaceOnUse">
<stop stop-color="#FF6100"/>
<stop offset="1" stop-color="#FFA429"/>
</linearGradient>
</defs>
</svg>
