<svg preserveAspectRatio="none" width="100%" height="100%" overflow="visible" style="display: block;" viewBox="0 0 64 64" fill="none" xmlns="http://www.w3.org/2000/svg">
<g id="icon">
<g id="&#232;&#131;&#140;&#230;&#153;&#175;">
<mask id="mask0_0_4" style="mask-type:alpha" maskUnits="userSpaceOnUse" x="0" y="0" width="64" height="64">
<rect id="&#231;&#159;&#169;&#229;&#189;&#162;" width="64" height="64" fill="var(--fill-0, black)"/>
</mask>
<g mask="url(#mask0_0_4)">
<g id="&#232;&#129;&#148;&#233;&#155;&#134; 7" filter="url(#filter0_d_0_4)">
<circle cx="32" cy="32" r="22" fill="var(--fill-0, white)" fill-opacity="0.65"/>
</g>
<circle id="&#229;&#156;&#134;&#229;&#189;&#162; 333" cx="32" cy="32" r="18" fill="url(#paint0_linear_0_4)"/>
</g>
</g>
<path id="Union" d="M22.0474 23.9995C22.5996 23.9995 23.0474 24.4482 23.0474 25.0005V33.686H32.0005V28.7905C32.0007 27.8542 32.7594 27.0952 33.6958 27.0952H37.1431C41.5085 27.0955 45.0474 30.635 45.0474 35.0005V38.0718C45.0473 38.6372 44.5884 39.0952 44.0229 39.0952C43.4577 39.095 42.9996 38.6371 42.9995 38.0718V35.9722H23.0474V38.0005C23.0471 38.5525 22.5995 39.0005 22.0474 39.0005C21.4951 39.0005 21.0474 38.5518 21.0474 37.9995V24.9995C21.0476 24.4475 21.4952 23.9995 22.0474 23.9995ZM27.5005 27.0005C28.881 27.0008 30.0005 28.1199 30.0005 29.5005C30.0002 30.8808 28.8808 32.0002 27.5005 32.0005C26.1199 32.0005 25.0008 30.881 25.0005 29.5005C25.0005 28.1198 26.1198 27.0005 27.5005 27.0005Z" fill="var(--fill-0, white)"/>
</g>
<defs>
<filter id="filter0_d_0_4" x="3.5" y="6.5" width="58" height="58" filterUnits="userSpaceOnUse" color-interpolation-filters="sRGB">
<feFlood flood-opacity="0" result="BackgroundImageFix"/>
<feColorMatrix in="SourceAlpha" type="matrix" values="0 0 0 0 0 0 0 0 0 0 0 0 0 0 0 0 0 0 127 0" result="hardAlpha"/>
<feOffset dx="0.5" dy="3.5"/>
<feGaussianBlur stdDeviation="3.5"/>
<feColorMatrix type="matrix" values="0 0 0 0 0 0 0 0 0 0 0 0 0 0 0 0 0 0 0.15 0"/>
<feBlend mode="normal" in2="BackgroundImageFix" result="effect1_dropShadow_0_4"/>
<feBlend mode="normal" in="SourceGraphic" in2="effect1_dropShadow_0_4" result="shape"/>
</filter>
<linearGradient id="paint0_linear_0_4" x1="31.5137" y1="50.3245" x2="26.5" y2="14" gradientUnits="userSpaceOnUse">
<stop offset="0.0544" stop-color="#4D3AF3"/>
<stop offset="0.9579" stop-color="#9D89FF"/>
</linearGradient>
</defs>
</svg>
