<svg xmlns="http://www.w3.org/2000/svg" width="64" height="64" viewBox="0 0 64 64" fill="none">
  <!-- Figma 1:4751 / icon 1:4752：绿底双树 + 白色光晕 -->
  <defs>
    <filter id="parkGlow" x="3.5" y="6.5" width="58" height="58" filterUnits="userSpaceOnUse" color-interpolation-filters="sRGB">
      <feFlood flood-opacity="0" result="BackgroundImageFix"/>
      <feColorMatrix in="SourceAlpha" type="matrix" values="0 0 0 0 0 0 0 0 0 0 0 0 0 0 0 0 0 0 127 0" result="hardAlpha"/>
      <feOffset dx="0.5" dy="3.5"/>
      <feGaussianBlur stdDeviation="3.5"/>
      <feColorMatrix type="matrix" values="0 0 0 0 0 0 0 0 0 0 0 0 0 0 0 0 0 0 0.15 0"/>
      <feBlend mode="normal" in2="BackgroundImageFix" result="effect1_dropShadow"/>
      <feBlend mode="normal" in="SourceGraphic" in2="effect1_dropShadow" result="shape"/>
    </filter>
    <linearGradient id="parkGreen" x1="31.5137" y1="50.3245" x2="25.5" y2="14" gradientUnits="userSpaceOnUse">
      <stop offset="0.0652" stop-color="#04AA28"/>
      <stop offset="0.9546" stop-color="#61DD02"/>
    </linearGradient>
  </defs>
  <circle cx="32" cy="32" r="22" fill="#FFFFFF" fill-opacity="0.65" filter="url(#parkGlow)"/>
  <circle cx="32" cy="32" r="18" fill="url(#parkGreen)"/>
  <path fill="#FFFFFF" d="M29.0254 20C31.5358 20.0016 35.0332 27.4815 35.0332 31.5742C35.0331 35.2748 32.9774 36.718 30.001 36.9609V41H35.9424V36.9561C35.7733 36.9413 35.6081 36.9188 35.4473 36.8945C36.3719 35.6332 36.8798 33.9423 36.8799 31.8135C36.8799 30.1823 36.5245 28.2846 35.9229 26.4199L35.7598 25.9336C35.5896 25.4429 35.4023 24.9564 35.2012 24.4795C35.8157 23.5785 36.4461 23 37.001 23C38.8836 23.0023 41.3553 29.6502 41.3555 33.0205C41.3554 35.9684 40.0282 36.8037 37.9424 36.9668V41H39.0068C39.5588 41.0003 40.0067 41.448 40.0068 42C40.0067 42.552 39.5588 42.9997 39.0068 43H26.0068C25.4548 42.9998 25.007 42.5521 25.0068 42C25.007 41.4479 25.4548 41.0002 26.0068 41H28.001V36.957C25.0532 36.7025 23.0333 35.2548 23.0332 31.5742C23.0332 27.4811 26.515 20 29.0254 20Z"/>
</svg>
