<svg preserveAspectRatio="none" width="100%" height="100%" overflow="visible" style="display: block;" viewBox="0 0 64 64" fill="none" xmlns="http://www.w3.org/2000/svg">
<g id="icon">
<g id="&#232;&#131;&#140;&#230;&#153;&#175;">
<mask id="mask0_0_4" style="mask-type:alpha" maskUnits="userSpaceOnUse" x="0" y="0" width="64" height="64">
<rect id="&#231;&#159;&#169;&#229;&#189;&#162;" width="64" height="64" fill="var(--fill-0, black)"/>
</mask>
<g mask="url(#mask0_0_4)">
<g id="&#232;&#129;&#148;&#233;&#155;&#134; 7" filter="url(#filter0_d_0_4)">
<circle cx="32" cy="32" r="22" fill="var(--fill-0, white)" fill-opacity="0.65"/>
</g>
<circle id="&#229;&#156;&#134;&#229;&#189;&#162; 333" cx="32" cy="32" r="18" fill="var(--fill-0, white)"/>
</g>
</g>
<path id="Fill 1" d="M32.001 14C41.6923 14.0002 49.5942 21.7044 49.9902 31.3574C49.6662 31.6706 48.9236 32.1996 47.9326 31.7715C47.9326 31.7715 47.6646 31.6949 46.5283 31.1201C46.5283 31.1201 45.4163 30.4266 44.833 30.4131C44.833 30.4131 44.183 30.3864 43.9189 30.5664C43.9189 30.5664 44.3157 31.3847 44.3164 31.5059C44.3164 31.5059 45.1904 31.3863 46.124 31.9863C46.1375 31.9938 46.9425 32.4412 47.2305 32.5732C47.2505 32.5856 48.6431 33.4385 50 32.6201C49.9832 33.2536 49.9327 33.8803 49.8535 34.4971C49.5463 34.6542 48.9758 34.7578 47.9824 34.3955C47.9617 34.3869 47.1353 34.044 46.96 33.916C46.9464 33.9072 46.1116 33.3649 45.5879 33.2861C45.5879 33.2861 45.2011 33.2261 44.9814 33.2861L45.1611 34.3047C45.1611 34.3047 45.8374 34.3368 46.333 34.6416C46.3446 34.6473 47.0076 34.9767 47.3359 35.2051C47.3534 35.2159 48.5844 35.9781 49.627 35.8398C49.5286 36.3174 49.4112 36.7869 49.2744 37.25C49.0164 37.304 48.5694 37.3039 47.8926 37.0146C47.8894 37.0132 47.3841 36.7824 46.6211 36.2754C46.6211 36.2754 45.956 35.9341 45.3213 35.9844L45.4199 36.915C45.4381 36.9147 45.9755 36.9069 46.4922 37.2773C46.4986 37.2825 47.6881 38.2381 48.9111 38.3604C48.7407 38.8272 48.5511 39.2841 48.3447 39.7305C48.0939 39.734 47.6381 39.6531 47.0781 39.1748C47.0781 39.1748 46.4637 38.684 46.2344 38.6143C46.2344 38.6143 45.8168 38.3835 45.3213 38.4746L45.1113 39.3828C45.1253 39.3856 45.8706 39.5356 46.2344 39.8232C46.2344 39.8232 46.8347 40.2643 47.1191 40.4131C47.1309 40.4219 47.4179 40.6331 47.8809 40.666C47.6444 41.11 47.3913 41.5436 47.1201 41.9648C46.5022 41.5233 45.1571 40.6458 44.5557 40.9033L44.8926 39.7637C44.8847 39.7652 43.974 39.9401 42.9668 39.1445L42.0713 38.4531C42.0723 38.4398 42.1822 36.8793 40.2441 34.5576C40.2441 34.5576 39.5685 33.6256 40.0244 32.2061C40.0244 32.2061 41.8324 27.9279 38.8135 25.9082C38.838 25.9301 40.7125 27.6199 39.3701 31.8486C39.3567 31.8733 38.5439 33.3775 39.627 34.8652C39.6422 34.8828 41.1981 36.6746 41.375 38.375C41.375 38.375 41.4557 39.5439 40.4023 41.1025C40.4023 41.1025 41.9317 42.6625 42.9854 42.9424C42.9854 42.9424 43.62 43.1221 43.9189 42.9424L44.2754 41.8828C44.2754 41.8828 44.9127 41.8028 45.5283 42.1436C45.5283 42.1436 46.1659 42.5152 46.5547 42.79C46.2871 43.1572 46.0076 43.5148 45.7148 43.8604C45.3836 43.6071 44.6165 43.0844 44.0381 43.2236L43.541 43.9326C43.541 43.9326 44.5989 43.9335 45.127 44.5215C44.7753 44.8971 44.409 45.2591 44.0273 45.6035C43.8042 45.4152 43.4529 45.184 43.0654 45.1719L42.4688 45.8418C42.4779 45.8459 42.9139 46.0441 43.1787 46.3242C42.5908 46.7933 41.9731 47.2266 41.3301 47.6201C40.8513 46.3097 39.8848 45.082 39.8848 45.082C39.1915 44.1635 39.2702 42.6489 39.2705 42.6426C38.2035 43.9337 39.7859 45.8904 39.8066 45.916C40.3431 46.294 40.618 47.2654 40.75 47.959C40.4296 48.1378 40.1029 48.308 39.7705 48.4688C39.6337 47.8327 39.2654 46.8392 38.3223 45.4424C38.3208 45.4409 36.9252 43.9814 37.9189 42.583C37.9189 42.583 38.0383 42.0438 39.0127 40.9434C39.0292 40.927 41.056 38.9156 39.8477 36.9639C39.8405 36.9524 38.9689 35.5425 38.2363 34.8457C38.2363 34.8457 37.3213 33.6046 38.1182 32.0254C38.1373 31.9949 40.4878 28.2336 37.084 25.0879C37.084 25.0879 39.6267 28.1525 37.3418 31.8486C37.3244 31.8794 36.3417 33.6392 37.7783 35.1855C37.7783 35.1855 40.4215 38.0441 38.8135 40.083C38.8135 40.083 38.0183 41.0433 37.8779 41.2041C37.8444 41.2367 35.9034 43.1432 37.3418 45.4619C37.3596 45.4838 38.8856 47.3622 38.7842 48.9072C38.3307 49.0932 37.8699 49.2604 37.3984 49.4092C37.4728 48.7299 37.4088 47.607 36.5869 46.2812C36.5845 46.2781 34.7606 43.8611 35.8135 42.2637C35.8135 42.2637 36.1904 41.4434 37.0244 40.583C37.0557 40.5528 39.0552 38.6044 37.1836 36.1445C37.1836 36.1445 35.1362 34.2254 36.0303 32.3857C36.038 32.3728 39.0856 27.2852 35.4355 24.749C35.4694 24.783 37.9449 27.2929 35.9131 30.9863C35.9131 30.9863 34.2426 34.0041 35.6328 35.2451C35.6328 35.2451 38.0101 37.924 36.7129 39.6641C36.7021 39.6783 35.8311 40.8241 35.6533 41.0234C35.6533 41.0234 33.7661 43.0023 35.1758 45.3818C35.1758 45.3818 36.1704 47.1213 36.21 47.2617C36.21 47.2617 36.6824 48.0288 36.374 49.6992C35.9276 49.812 35.4721 49.9064 35.0137 49.9844C35.2729 49.316 35.291 48.6211 35.291 48.6211C35.2706 47.2989 33.5562 44.3643 33.543 44.3418C32.6693 42.3557 34.9863 40.2637 34.9863 40.2637C36.8092 38.2302 35.3073 36.5889 35.2783 36.5576C34.241 35.2764 33.8687 34.3932 33.8623 34.3779C33.559 33.8681 32.8479 34.3516 32.8408 34.3564C31.8353 34.8285 31.0475 34.4759 31.0254 34.4658C30.0792 33.7256 29.8888 34.544 29.8857 34.5576C29.8081 35.1808 28.4823 37.0454 28.4688 37.0645C27.3299 38.6377 29.291 40.5176 29.291 40.5176C30.3424 41.8888 30.4014 42.2226 30.4033 42.2354C31.1678 43.5231 29.9641 45.4841 29.9531 45.502C29.6735 45.8488 28.999 47.3418 28.999 47.3418C28.6414 48.4074 28.8168 49.3376 29.082 50C28.5948 49.9208 28.1156 49.8209 27.6416 49.7021C27.335 48.0389 27.8014 47.2703 27.8066 47.2617C27.8474 47.1213 28.8398 45.3818 28.8398 45.3818C30.2507 43.0023 28.3633 41.0234 28.3633 41.0234C28.1842 40.8226 27.3047 39.6641 27.3047 39.6641C26.0076 37.924 28.3828 35.2451 28.3828 35.2451C29.773 34.0041 28.1055 30.9863 28.1055 30.9863C26.0595 27.2675 28.582 24.749 28.582 24.749C24.929 27.2859 27.9796 32.3761 27.9854 32.3857C28.8794 34.2254 26.833 36.1445 26.833 36.1445C24.9601 38.6047 26.9605 40.5533 26.9912 40.583C27.8264 41.4434 28.2051 42.2637 28.2051 42.2637C29.2555 43.8598 27.434 46.2743 27.4287 46.2812C26.6067 47.6097 26.5423 48.7368 26.6191 49.416C26.1477 49.2672 25.6859 49.0988 25.2324 48.9141C25.1262 47.3664 26.6566 45.483 26.6738 45.4619C28.1247 43.123 26.1367 41.2041 26.1367 41.2041C25.9987 41.0433 25.2031 40.083 25.2031 40.083C23.603 38.0554 26.2075 35.2169 26.2363 35.1855C27.6743 33.6394 26.6914 31.8798 26.6738 31.8486C24.389 28.1525 26.9316 25.0879 26.9316 25.0879C23.5348 28.2282 25.8724 31.9822 25.8994 32.0254C26.6938 33.6046 25.7793 34.8457 25.7793 34.8457C25.0449 35.5453 24.1689 36.9639 24.1689 36.9639C22.9557 38.9235 25.0059 40.9434 25.0059 40.9434C25.9789 42.0437 26.0986 42.583 26.0986 42.583C27.089 43.9797 25.6983 45.4372 25.6934 45.4424C24.7478 46.844 24.3788 47.8398 24.2432 48.4746C23.9121 48.3151 23.5859 48.1446 23.2656 47.9658C23.3976 47.2722 23.671 46.2952 24.2109 45.916C24.2201 45.9048 25.8171 43.9385 24.7461 42.6426C24.7463 42.6471 24.8245 44.1629 24.1309 45.082C24.1309 45.082 23.1624 46.3151 22.6836 47.6279C22.038 47.2343 21.4203 46.8003 20.8311 46.3311C21.0947 46.0488 21.5346 45.8478 21.5479 45.8418L20.9521 45.1719C20.5598 45.1839 20.2047 45.421 19.9814 45.6094C19.5999 45.2662 19.2332 44.9049 18.8828 44.5293C19.4084 43.9341 20.4746 43.9326 20.4746 43.9326L19.9775 43.2236C19.3943 43.0832 18.618 43.6186 18.2939 43.8682C17.9999 43.5226 17.7198 43.1643 17.4521 42.7959C17.841 42.5211 18.4883 42.1436 18.4883 42.1436C19.0959 41.8072 19.7221 41.8808 19.7383 41.8828L20.0977 42.9424C20.3953 43.1223 21.0312 42.9424 21.0312 42.9424C22.0804 42.6635 23.6047 41.1123 23.6143 41.1025C22.561 39.5439 22.6406 38.375 22.6406 38.375C22.8199 36.6742 24.3742 34.8818 24.3887 34.8652C25.47 33.3816 24.6661 31.8812 24.6484 31.8486C23.3078 27.6256 25.1737 25.9346 25.2031 25.9082C22.1832 27.928 23.9912 32.2061 23.9912 32.2061C24.4434 33.6104 23.7876 34.5378 23.7734 34.5576C21.8348 36.8785 21.9443 38.4387 21.9453 38.4531L21.0518 39.1445C20.0431 39.9395 19.1326 39.7655 19.123 39.7637L19.4609 40.9033C18.8559 40.6448 17.5 41.5326 16.8857 41.9717C16.6146 41.5493 16.3577 41.1136 16.1201 40.666C16.6025 40.6372 16.8984 40.4131 16.8984 40.4131C17.1817 40.2642 17.7822 39.8232 17.7822 39.8232C18.1494 39.5328 18.9062 39.3828 18.9062 39.3828L18.6953 38.4746C18.1999 38.3836 17.7822 38.6143 17.7822 38.6143C17.5528 38.6842 16.9375 39.1748 16.9375 39.1748C16.3666 39.6641 15.9047 39.7364 15.6562 39.7305C15.4499 39.2841 15.2612 38.8278 15.0908 38.3623C16.3189 38.2461 17.5195 37.2805 17.5234 37.2773C18.0515 36.9005 18.5977 36.915 18.5977 36.915L18.6953 35.9844C18.0606 35.9342 17.3945 36.2754 17.3945 36.2754C16.633 36.7814 16.1282 37.0123 16.123 37.0146C15.4318 37.3099 14.9814 37.3027 14.7246 37.2451C14.5902 36.7831 14.4715 36.3133 14.373 35.8369C15.4184 35.9859 16.6631 35.2154 16.6797 35.2051C17.0094 34.9765 17.6719 34.6469 17.6826 34.6416C18.1794 34.3368 18.8555 34.3047 18.8555 34.3047L19.0342 33.2861C18.8158 33.2261 18.4277 33.2861 18.4277 33.2861C17.9009 33.3656 17.0576 33.916 17.0576 33.916C16.8797 34.044 16.0544 34.3867 16.0332 34.3955C15.0206 34.7662 14.449 34.6507 14.1465 34.4863C14.0673 33.8719 14.018 33.245 14 32.6113C15.3622 33.4444 16.7659 32.5851 16.7852 32.5732C17.0745 32.4411 17.8789 31.9934 17.8916 31.9863C18.8217 31.3886 19.6936 31.505 19.7002 31.5059C19.7009 31.3847 20.0977 30.5664 20.0977 30.5664C19.8324 30.3864 19.1826 30.4131 19.1826 30.4131C18.6005 30.4266 17.4873 31.1201 17.4873 31.1201C16.3522 31.6949 16.083 31.7715 16.083 31.7715C15.0763 32.2057 14.3273 31.6533 14.0117 31.3438C14.4151 21.6968 22.3144 14 32.001 14ZM31.9863 24.0283C29.4521 24.0284 28.7725 25.668 28.7725 25.668C28.3358 26.5606 28.9844 26.3408 28.9844 26.3408C29.2159 26.2816 29.8323 26.2679 29.8467 26.2676C31.1466 26.3007 31.2485 27.014 31.251 27.0332C31.4754 27.8804 31.2236 28.4404 31.2236 28.4404C31.0449 28.8805 30.8721 28.501 30.8721 28.501C30.7196 28.1208 30.1973 28.3613 30.1973 28.3613C29.4822 28.6072 29.0449 28.3008 29.0449 28.3008C28.5412 28.1213 28.3232 28.8447 28.3232 28.8447C28.1374 29.7808 28.9385 31.3662 28.9385 31.3662C29.5542 32.8324 30.9463 33.4717 30.9463 33.4717C32.0875 33.8975 32.9138 33.4743 32.9189 33.4717C34.3494 32.7193 35 31.0654 35 31.0654C35.2464 30.2803 35.3991 29.9261 35.4043 29.9141C35.7014 29.175 35.41 28.7227 35.4043 28.7139C35.3335 28.6467 35.2578 28.501 35.2578 28.501C35.035 28.1457 34.9035 28.4459 34.9004 28.4531C34.4136 28.6448 33.7779 28.4706 33.7676 28.4678C33.41 28.247 33.237 28.2806 32.9189 28.7402C32.9142 28.7485 32.9091 28.7546 32.9043 28.7617C32.6056 29.1802 32.5312 28.8473 32.5283 28.834C32.0299 27.0698 32.9757 26.5509 32.9922 26.542C33.7212 26.0191 35.2932 26.3958 35.3164 26.4014C35.7251 26.5209 35.4069 25.8464 35.4043 25.8408C34.5655 23.8956 31.9863 24.0283 31.9863 24.0283ZM30.3691 31.0391C30.33 30.8067 30.7266 30.8857 30.7266 30.8857C31.3891 31.1665 33.3105 30.9268 33.3105 30.9268C33.6147 30.933 33.4219 31.2139 33.4219 31.2139C32.8999 31.9206 32.2227 32.2002 32.2227 32.2002C31.9123 32.3306 31.6134 32.2053 31.6016 32.2002C31.0195 32.013 30.3691 31.0391 30.3691 31.0391ZM17.9111 22.6084C17.8979 22.601 17.4156 22.3373 17.4736 23.0273C17.479 23.0428 18.0426 24.6807 16.3408 27.4072L14.6914 29.9658C14.6914 29.9658 15.4861 30.9654 17.6123 29.7656C17.6123 29.7656 19.6399 28.7468 20.9707 29.0264C20.9846 29.0067 22.9039 26.3047 24.3877 25.6074C24.3752 25.5903 23.2763 24.0993 19.8389 26.0273C19.8388 26.0164 19.8133 23.7648 17.9111 22.6084ZM46.541 23.0273C46.601 22.3277 46.1035 22.6084 46.1035 22.6084C44.2017 23.7648 44.1769 26.016 44.1768 26.0273C40.7206 24.0881 39.626 25.6074 39.626 25.6074C41.1176 26.307 43.0449 29.0264 43.0449 29.0264C44.3664 28.7485 46.3777 29.7533 46.4023 29.7656C48.5276 30.9657 49.3223 29.9658 49.3223 29.9658L47.6738 27.4072C45.9662 24.6675 46.541 23.0273 46.541 23.0273ZM32 29.5996C32.0133 29.5996 32.5508 29.6031 32.7725 29.833C32.7725 29.833 32.992 29.9533 32.542 30.2461C32.5257 30.2504 31.728 30.4575 31.2363 30.2461C31.2363 30.2461 30.9987 30.1194 31.2363 29.8662C31.2392 29.8641 31.6246 29.5721 32 29.5996ZM30.0586 27.041C29.0309 26.5642 28.6465 27.1274 28.6416 27.1348C28.3791 27.4056 28.5971 27.6954 28.6016 27.7012C28.9193 28.0013 29.0978 27.7058 29.1045 27.6943C29.4831 27.3855 30.1978 27.6982 30.2178 27.707C30.6402 27.9746 30.6553 27.707 30.6553 27.707C30.6947 27.4011 30.0586 27.041 30.0586 27.041ZM35.2764 27.1348C35.2726 27.1292 34.8874 26.5635 33.8594 27.041C33.8594 27.041 33.2221 27.401 33.2627 27.707C33.2627 27.707 33.2759 27.9744 33.6992 27.707C33.6992 27.707 34.4283 27.3811 34.8135 27.6943C34.8205 27.7063 34.9989 28.0011 35.3164 27.7012C35.3215 27.6944 35.5385 27.4052 35.2764 27.1348ZM31.0781 17.376L28.5615 17.4443L30.5098 19.1621L29.6543 21.4316C28.9703 20.888 27.812 20.1247 26.1367 19.5283C26.1367 19.5283 25.3328 19.4195 25.6904 19.8887C25.7022 19.9051 26.6125 21.1746 26.416 22.0879C26.3941 22.0737 25.2492 21.337 23.8516 21.1777C23.8409 21.1761 23.1747 21.0732 23.7842 21.6279C23.7947 21.6406 24.7273 22.7681 25.1533 24.5674C25.1533 24.5674 25.0691 25.4359 25.8467 24.9463C25.9109 24.9092 31.5214 21.6866 38.3379 24.9463C38.347 24.9518 38.8291 25.2428 38.8125 24.8672C38.812 24.8386 38.7879 23.1641 40.2295 21.5283C40.2295 21.5283 40.8116 20.9682 40.0664 21.1182C40.0486 21.1209 38.8552 21.3033 37.6416 21.9678C37.6376 21.9466 37.4925 21.1521 38.1885 19.9092C38.1885 19.9092 38.5966 19.3791 37.9297 19.4785C37.9297 19.4785 35.9613 19.9605 34.3125 21.2373L33.4629 19.1895L35.4092 17.4434L32.8672 17.3232L31.9668 15.1641L31.0781 17.376ZM33.7305 21.7412C33.6275 21.8394 33.5267 21.9422 33.4297 22.0488C33.4297 22.0488 31.3642 21.9188 30.4102 22.1191C30.4102 22.1191 30.2925 21.9857 30.0586 21.7734L31.9668 20.2812L33.7305 21.7412Z" fill="var(--fill-0, #00684D)"/>
</g>
<defs>
<filter id="filter0_d_0_4" x="3.5" y="6.5" width="58" height="58" filterUnits="userSpaceOnUse" color-interpolation-filters="sRGB">
<feFlood flood-opacity="0" result="BackgroundImageFix"/>
<feColorMatrix in="SourceAlpha" type="matrix" values="0 0 0 0 0 0 0 0 0 0 0 0 0 0 0 0 0 0 127 0" result="hardAlpha"/>
<feOffset dx="0.5" dy="3.5"/>
<feGaussianBlur stdDeviation="3.5"/>
<feColorMatrix type="matrix" values="0 0 0 0 0 0 0 0 0 0 0 0 0 0 0 0 0 0 0.15 0"/>
<feBlend mode="normal" in2="BackgroundImageFix" result="effect1_dropShadow_0_4"/>
<feBlend mode="normal" in="SourceGraphic" in2="effect1_dropShadow_0_4" result="shape"/>
</filter>
</defs>
</svg>
